<?xml version="1.0" encoding="UTF-8"?>
<!-- Generator: visioncortex VTracer 0.6.3 -->
<svg version="1.1" xmlns="http://www.w3.org/2000/svg" width="1280" height="1280">
<path d="M0 0 C382.14 0 764.28 0 1158 0 C1158 340.23 1158 680.46 1158 1031 C1117.74 1031 1077.48 1031 1036 1031 C1036.04 1052.35 1036.04 1052.35 1036.09 1073.69 C1036.09 1076.36 1036.1 1079.02 1036.1 1081.68 C1036.1 1082.38 1036.1 1083.08 1036.11 1083.79 C1036.11 1085.84 1036.11 1087.88 1036.11 1089.92 C1036.12 1091.07 1036.12 1092.22 1036.12 1093.41 C1036 1096 1036 1096 1035 1097 C1032.5 1097.1 1030.03 1097.13 1027.53 1097.12 C1026.34 1097.13 1026.34 1097.13 1025.12 1097.13 C1022.41 1097.13 1019.7 1097.13 1017 1097.12 C1015.04 1097.12 1013.09 1097.12 1011.13 1097.13 C1005.71 1097.13 1000.29 1097.13 994.87 1097.12 C988.99 1097.12 983.12 1097.12 977.24 1097.12 C966.92 1097.12 956.6 1097.12 946.29 1097.12 C935.21 1097.11 924.13 1097.11 913.06 1097.11 C912.01 1097.11 912.01 1097.11 910.94 1097.11 C907.38 1097.11 903.82 1097.11 900.26 1097.11 C874.45 1097.12 848.65 1097.11 822.84 1097.11 C797.28 1097.1 771.72 1097.1 746.16 1097.09 C744.97 1097.09 744.97 1097.09 743.75 1097.09 C736.51 1097.09 729.26 1097.09 722.02 1097.09 C704.01 1097.09 686 1097.09 667.99 1097.09 C666.75 1097.09 666.75 1097.09 665.5 1097.09 C625.58 1097.09 585.65 1097.08 545.73 1097.08 C531.87 1097.07 518.01 1097.07 504.15 1097.07 C503.29 1097.07 502.43 1097.07 501.55 1097.07 C461.61 1097.06 421.67 1097.06 381.73 1097.06 C379.14 1097.05 376.55 1097.05 373.96 1097.05 C356.78 1097.05 339.6 1097.05 322.43 1097.05 C288.24 1097.05 254.06 1097.05 219.88 1097.04 C218.26 1097.04 216.63 1097.04 215 1097.04 C141.7 1097.04 68.39 1097.03 -4.91 1097.02 C-5.59 1097.02 -6.28 1097.02 -6.99 1097.02 C-41.33 1097.01 -75.66 1097.01 -110 1097 C-110.02 1009.42 -110.03 921.83 -110.04 803.88 C-110.04 802.42 -110.04 800.96 -110.04 799.5 C-110.05 768.87 -110.05 738.24 -110.05 707.61 C-110.05 692.22 -110.05 676.83 -110.05 661.45 C-110.05 659.13 -110.06 656.81 -110.06 654.49 C-110.06 618.73 -110.06 582.97 -110.07 547.22 C-110.07 546.45 -110.07 545.68 -110.07 544.89 C-110.07 532.49 -110.07 520.08 -110.08 507.68 C-110.08 471.97 -110.09 436.27 -110.09 400.56 C-110.09 399.83 -110.09 399.09 -110.09 398.34 C-110.09 382.23 -110.09 366.13 -110.09 350.02 C-110.09 343.54 -110.09 337.06 -110.09 330.58 C-110.09 329.87 -110.09 329.16 -110.09 328.43 C-110.1 305.56 -110.1 282.68 -110.11 259.8 C-110.11 236.13 -110.12 212.46 -110.11 188.79 C-110.11 175.13 -110.11 161.47 -110.12 147.8 C-110.12 138.7 -110.12 129.59 -110.12 120.48 C-110.12 115.28 -110.12 110.08 -110.12 104.88 C-110.13 100.16 -110.13 95.44 -110.12 90.72 C-110.12 89.01 -110.12 87.3 -110.13 85.59 C-110.13 83.29 -110.13 81 -110.12 78.7 C-110.12 77.42 -110.12 76.14 -110.12 74.82 C-110 72 -110 72 -109 71 C-107.58 70.9 -106.16 70.88 -104.74 70.88 C-103.36 70.88 -103.36 70.88 -101.96 70.88 C-100.43 70.88 -100.43 70.88 -98.88 70.89 C-97.82 70.89 -96.75 70.89 -95.66 70.89 C-92.13 70.89 -88.59 70.89 -85.06 70.9 C-82.62 70.9 -80.17 70.91 -77.73 70.91 C-71.29 70.91 -64.85 70.92 -58.4 70.93 C-50.68 70.94 -42.96 70.95 -35.24 70.95 C-23.49 70.96 -11.75 70.98 0 71 C0 47.57 0 24.14 0 0 Z M15 17 C14.9 19.17 14.88 21.34 14.88 23.52 C14.87 24.21 14.87 24.9 14.87 25.62 C14.87 27.98 14.87 30.34 14.88 32.69 C14.88 34.4 14.88 36.1 14.87 37.8 C14.87 42.52 14.87 47.24 14.88 51.96 C14.88 57.07 14.88 62.19 14.88 67.31 C14.88 76.29 14.88 85.28 14.88 94.26 C14.89 107.62 14.89 120.98 14.89 134.34 C14.88 156.81 14.89 179.28 14.89 201.75 C14.9 224 14.9 246.26 14.91 268.52 C14.91 269.21 14.91 269.9 14.91 270.61 C14.91 276.92 14.91 283.23 14.91 289.54 C14.91 305.22 14.91 320.9 14.91 336.59 C14.91 337.3 14.91 338.02 14.91 338.75 C14.91 373.51 14.92 408.28 14.92 443.04 C14.93 455.11 14.93 467.17 14.93 479.24 C14.93 479.99 14.93 480.74 14.93 481.51 C14.94 516.28 14.94 551.06 14.94 585.83 C14.95 588.09 14.95 590.35 14.95 592.6 C14.95 607.56 14.95 622.52 14.95 637.48 C14.95 667.24 14.95 697 14.96 726.76 C14.96 728.18 14.96 729.6 14.96 731.01 C14.97 816.65 14.98 902.28 15 1014 C18.73 1016.42 22.4 1016.28 26.69 1016.25 C27.47 1016.25 28.26 1016.26 29.06 1016.26 C31.71 1016.27 34.36 1016.26 37.01 1016.25 C38.93 1016.25 40.84 1016.26 42.76 1016.26 C48.07 1016.27 53.37 1016.26 58.68 1016.26 C64.44 1016.25 70.19 1016.26 75.95 1016.26 C86.06 1016.27 96.16 1016.27 106.27 1016.27 C117.11 1016.26 127.95 1016.26 138.8 1016.26 C139.48 1016.26 140.17 1016.26 140.87 1016.26 C143.66 1016.26 146.45 1016.27 149.23 1016.27 C175.21 1016.28 201.18 1016.28 227.15 1016.27 C228.31 1016.27 228.31 1016.27 229.49 1016.27 C230.26 1016.27 231.03 1016.27 231.82 1016.27 C255.3 1016.27 278.77 1016.27 302.25 1016.27 C303.82 1016.27 305.39 1016.27 306.96 1016.27 C313.27 1016.27 319.58 1016.27 325.9 1016.27 C343.54 1016.27 361.18 1016.27 378.83 1016.27 C379.63 1016.27 380.43 1016.27 381.26 1016.27 C406.87 1016.27 432.49 1016.27 458.1 1016.27 C458.93 1016.27 459.76 1016.27 460.61 1016.27 C474.11 1016.27 487.61 1016.26 501.1 1016.26 C554.63 1016.25 608.17 1016.25 661.7 1016.26 C675.19 1016.26 688.68 1016.27 702.17 1016.27 C703 1016.27 703.83 1016.27 704.69 1016.27 C730.27 1016.27 755.86 1016.27 781.45 1016.27 C782.25 1016.27 783.05 1016.27 783.88 1016.27 C801.5 1016.27 819.13 1016.27 836.75 1016.27 C843.05 1016.27 849.36 1016.27 855.66 1016.27 C857.23 1016.27 858.8 1016.27 860.37 1016.27 C883.84 1016.27 907.31 1016.27 930.79 1016.27 C931.94 1016.27 931.94 1016.27 933.12 1016.27 C934.27 1016.27 934.27 1016.27 935.45 1016.27 C961.35 1016.28 987.24 1016.28 1013.13 1016.27 C1015.91 1016.26 1018.69 1016.26 1021.46 1016.26 C1022.15 1016.26 1022.83 1016.26 1023.53 1016.26 C1033.69 1016.26 1043.84 1016.26 1054 1016.27 C1065.28 1016.27 1076.57 1016.27 1087.85 1016.26 C1093.54 1016.26 1099.23 1016.25 1104.92 1016.26 C1110.08 1016.27 1115.25 1016.26 1120.41 1016.25 C1122.28 1016.25 1124.15 1016.25 1126.01 1016.26 C1128.53 1016.27 1131.05 1016.26 1133.56 1016.25 C1134.3 1016.26 1135.03 1016.26 1135.79 1016.27 C1139.84 1016.35 1139.84 1016.35 1143 1014 C1143.3 1010.98 1143.3 1010.98 1143.25 1007.36 C1143.25 1006.67 1143.25 1005.97 1143.26 1005.25 C1143.26 1002.9 1143.26 1000.54 1143.25 998.19 C1143.25 996.48 1143.25 994.78 1143.26 993.08 C1143.26 988.36 1143.26 983.64 1143.25 978.93 C1143.24 973.81 1143.25 968.69 1143.25 963.58 C1143.26 954.59 1143.26 945.61 1143.25 936.63 C1143.24 923.28 1143.24 909.92 1143.25 896.57 C1143.25 874.1 1143.25 851.64 1143.24 829.18 C1143.23 806.93 1143.23 784.68 1143.23 762.42 C1143.23 761.03 1143.23 759.63 1143.23 758.24 C1143.23 752.63 1143.23 747.02 1143.23 741.41 C1143.23 725.73 1143.23 710.05 1143.23 694.37 C1143.23 693.3 1143.23 693.3 1143.23 692.2 C1143.23 669.44 1143.22 646.67 1143.22 623.91 C1143.22 623.17 1143.22 622.43 1143.22 621.67 C1143.21 609.68 1143.21 597.68 1143.21 585.68 C1143.19 538.1 1143.18 490.51 1143.19 442.93 C1143.19 441.43 1143.19 439.92 1143.19 438.42 C1143.19 435.41 1143.19 432.41 1143.19 429.4 C1143.19 422.67 1143.19 415.93 1143.19 409.2 C1143.19 407.7 1143.19 406.21 1143.19 404.72 C1143.19 364.89 1143.18 325.07 1143.18 285.24 C1143.18 284.54 1143.18 283.85 1143.18 283.13 C1143.17 273.7 1143.17 273.7 1143.17 264.26 C1143.17 248.96 1143.17 233.66 1143.17 218.36 C1143.17 217.67 1143.17 216.98 1143.17 216.27 C1143.17 213.48 1143.17 210.7 1143.17 207.92 C1143.17 182.13 1143.16 156.35 1143.15 130.56 C1143.15 117.28 1143.15 104 1143.15 90.71 C1143.15 81.86 1143.14 73 1143.14 64.14 C1143.14 59.09 1143.13 54.03 1143.14 48.97 C1143.14 44.38 1143.14 39.79 1143.13 35.2 C1143.13 33.54 1143.13 31.88 1143.13 30.22 C1143.13 27.99 1143.13 25.75 1143.13 23.51 C1143.13 21.65 1143.13 21.65 1143.13 19.75 C1143.31 17.09 1143.31 17.09 1142 16 C1139.54 15.9 1137.11 15.87 1134.66 15.87 C1133.87 15.87 1133.09 15.87 1132.28 15.87 C1129.62 15.87 1126.96 15.87 1124.29 15.87 C1122.37 15.87 1120.45 15.87 1118.53 15.87 C1113.2 15.87 1107.87 15.87 1102.54 15.87 C1096.76 15.87 1090.98 15.87 1085.21 15.87 C1074.39 15.86 1063.58 15.87 1052.76 15.87 C1042.54 15.87 1032.32 15.87 1022.1 15.87 C1021.41 15.87 1020.72 15.87 1020.02 15.87 C1017.22 15.87 1014.42 15.87 1011.63 15.87 C985.55 15.86 959.47 15.86 933.39 15.86 C932.23 15.86 932.23 15.86 931.05 15.86 C929.89 15.86 929.89 15.86 928.7 15.86 C905.13 15.87 881.56 15.87 857.99 15.87 C856.41 15.87 854.83 15.87 853.26 15.87 C846.92 15.87 840.59 15.87 834.25 15.86 C816.54 15.86 798.83 15.86 781.12 15.86 C780.31 15.86 779.51 15.86 778.68 15.86 C752.96 15.86 727.25 15.86 701.53 15.87 C700.7 15.87 699.86 15.87 699 15.87 C685.45 15.87 671.9 15.87 658.35 15.87 C604.6 15.87 550.85 15.87 497.1 15.87 C483.56 15.87 470.01 15.87 456.47 15.87 C455.22 15.87 455.22 15.87 453.94 15.87 C428.25 15.86 402.57 15.86 376.88 15.86 C376.07 15.86 375.27 15.86 374.44 15.86 C356.75 15.86 339.06 15.86 321.37 15.87 C315.04 15.87 308.71 15.87 302.38 15.87 C300.8 15.87 299.23 15.87 297.65 15.87 C274.08 15.87 250.52 15.87 226.95 15.86 C226.18 15.86 225.4 15.86 224.61 15.86 C223.45 15.86 223.45 15.86 222.27 15.86 C196.27 15.86 170.27 15.86 144.27 15.87 C141.48 15.87 138.69 15.87 135.9 15.87 C135.22 15.87 134.53 15.87 133.83 15.87 C123.63 15.87 113.43 15.87 103.23 15.87 C91.9 15.86 80.57 15.86 69.24 15.87 C63.53 15.87 57.81 15.87 52.1 15.87 C46.92 15.87 41.73 15.87 36.55 15.87 C34.67 15.87 32.79 15.87 30.92 15.87 C28.39 15.87 25.87 15.87 23.34 15.87 C22.6 15.87 21.86 15.87 21.1 15.87 C17.77 15.59 17.77 15.59 15 17 Z M-94 86 C-95.44 88.89 -95.13 91.38 -95.13 94.61 C-95.13 95.3 -95.13 95.99 -95.13 96.7 C-95.14 99.05 -95.13 101.39 -95.13 103.73 C-95.13 105.43 -95.13 107.12 -95.13 108.81 C-95.14 113.51 -95.14 118.2 -95.13 122.89 C-95.13 127.98 -95.14 133.07 -95.14 138.16 C-95.15 147.1 -95.15 156.03 -95.15 164.97 C-95.14 178.25 -95.15 191.54 -95.15 204.83 C-95.16 229.93 -95.17 255.03 -95.17 280.14 C-95.17 282.91 -95.17 285.68 -95.17 288.45 C-95.17 289.14 -95.17 289.83 -95.17 290.53 C-95.17 305.75 -95.17 320.98 -95.17 336.2 C-95.17 342.46 -95.17 348.72 -95.18 354.99 C-95.18 355.68 -95.18 356.37 -95.18 357.08 C-95.18 396.75 -95.19 436.42 -95.19 476.08 C-95.19 477.57 -95.19 479.05 -95.19 480.54 C-95.19 487.24 -95.19 493.95 -95.19 500.65 C-95.19 503.64 -95.19 506.63 -95.19 509.62 C-95.19 511.12 -95.19 512.62 -95.19 514.11 C-95.18 561.45 -95.19 608.79 -95.21 656.13 C-95.21 668.06 -95.21 679.99 -95.22 691.92 C-95.22 692.65 -95.22 693.39 -95.22 694.14 C-95.22 716.77 -95.23 739.39 -95.23 762.02 C-95.23 762.73 -95.23 763.44 -95.23 764.17 C-95.23 779.75 -95.23 795.33 -95.23 810.92 C-95.23 816.49 -95.23 822.07 -95.23 827.64 C-95.23 829.03 -95.23 830.42 -95.23 831.8 C-95.23 853.93 -95.23 876.06 -95.24 898.2 C-95.25 921.09 -95.25 943.99 -95.25 966.89 C-95.24 980.11 -95.24 993.32 -95.25 1006.54 C-95.26 1015.35 -95.26 1024.16 -95.25 1032.97 C-95.25 1038 -95.25 1043.03 -95.26 1048.06 C-95.26 1052.63 -95.26 1057.2 -95.25 1061.76 C-95.25 1063.41 -95.25 1065.07 -95.26 1066.72 C-95.26 1068.94 -95.26 1071.17 -95.25 1073.39 C-95.25 1074.63 -95.25 1075.87 -95.25 1077.14 C-95.3 1080.13 -95.3 1080.13 -93 1082 C-90.51 1082.2 -88.12 1082.27 -85.63 1082.25 C-84.86 1082.25 -84.08 1082.26 -83.29 1082.26 C-80.66 1082.27 -78.03 1082.26 -75.41 1082.25 C-73.51 1082.25 -71.62 1082.26 -69.72 1082.26 C-64.46 1082.27 -59.21 1082.26 -53.95 1082.26 C-48.25 1082.25 -42.55 1082.26 -36.85 1082.26 C-26.84 1082.27 -16.83 1082.27 -6.82 1082.27 C3.92 1082.26 14.66 1082.26 25.4 1082.26 C26.42 1082.26 26.42 1082.26 27.45 1082.26 C30.21 1082.26 32.97 1082.27 35.73 1082.27 C61.46 1082.28 87.18 1082.28 112.9 1082.27 C113.67 1082.27 114.43 1082.27 115.21 1082.27 C115.98 1082.27 116.74 1082.27 117.53 1082.27 C140.78 1082.27 164.03 1082.27 187.29 1082.27 C188.84 1082.27 190.4 1082.27 191.95 1082.27 C198.2 1082.27 204.45 1082.27 210.7 1082.27 C228.17 1082.27 245.65 1082.27 263.12 1082.27 C263.91 1082.27 264.71 1082.27 265.53 1082.27 C290.9 1082.27 316.26 1082.27 341.63 1082.27 C342.86 1082.27 342.86 1082.27 344.12 1082.27 C357.49 1082.27 370.86 1082.26 384.23 1082.26 C437.25 1082.25 490.27 1082.25 543.29 1082.26 C556.65 1082.26 570.01 1082.27 583.37 1082.27 C584.19 1082.27 585.02 1082.27 585.86 1082.27 C611.2 1082.27 636.54 1082.27 661.88 1082.27 C662.68 1082.27 663.47 1082.27 664.29 1082.27 C681.74 1082.27 699.2 1082.27 716.65 1082.27 C722.89 1082.27 729.14 1082.27 735.38 1082.27 C736.94 1082.27 738.49 1082.27 740.04 1082.27 C763.29 1082.27 786.54 1082.27 809.79 1082.27 C810.93 1082.27 810.93 1082.27 812.1 1082.27 C813.24 1082.27 813.24 1082.27 814.4 1082.27 C840.05 1082.28 865.7 1082.28 891.35 1082.27 C894.1 1082.26 896.85 1082.26 899.6 1082.26 C900.27 1082.26 900.95 1082.26 901.64 1082.26 C913.01 1082.26 924.38 1082.26 935.75 1082.27 C945.62 1082.27 955.49 1082.27 965.36 1082.26 C970.99 1082.26 976.63 1082.25 982.26 1082.26 C987.37 1082.27 992.49 1082.26 997.61 1082.25 C999.45 1082.25 1001.3 1082.25 1003.15 1082.26 C1005.65 1082.27 1008.14 1082.26 1010.63 1082.25 C1011.36 1082.26 1012.08 1082.26 1012.83 1082.27 C1016.86 1082.35 1016.86 1082.35 1020 1080 C1020 1063.83 1020 1047.66 1020 1031 C683.4 1031 346.8 1031 0 1031 C0 719.15 0 407.3 0 86 C-31.02 86 -62.04 86 -94 86 Z " fill="#FEFEFE" transform="translate(116,92)"/>
<path d="M0 0 C1.24 -0.01 1.24 -0.01 2.5 -0.01 C5.24 -0.02 7.98 -0.02 10.72 -0.02 C12.62 -0.03 14.53 -0.03 16.43 -0.03 C20.43 -0.04 24.42 -0.04 28.42 -0.04 C33.53 -0.04 38.64 -0.05 43.75 -0.07 C47.69 -0.08 51.63 -0.08 55.56 -0.08 C57.44 -0.08 59.33 -0.09 61.21 -0.1 C63.85 -0.11 66.49 -0.1 69.14 -0.1 C70.29 -0.11 70.29 -0.11 71.47 -0.11 C76.59 -0.09 80.96 0.77 85.89 2.15 C87.59 2.37 89.29 2.56 90.99 2.67 C91.89 2.74 92.78 2.81 93.71 2.88 C94.63 2.95 95.56 3.01 96.52 3.08 C104.09 3.7 111.25 4.66 118.65 6.42 C122.19 7.21 125.73 7.73 129.33 8.21 C134.03 8.84 138.34 9.8 142.89 11.15 C144.83 11.47 146.76 11.79 148.7 12.08 C153.48 12.84 157.95 13.96 162.55 15.43 C164.72 16.09 166.85 16.58 169.08 17.02 C174.56 18.18 179.81 20.04 185.11 21.85 C188.48 23.01 191.87 24.11 195.27 25.21 C197.14 25.84 199.02 26.49 200.89 27.15 C201.77 27.45 202.66 27.76 203.56 28.07 C204.37 28.38 205.18 28.7 206.02 29.02 C206.72 29.29 207.42 29.55 208.15 29.82 C210.75 31.8 211.01 34.04 211.89 37.15 C212.16 39.08 212.35 41.03 212.48 42.98 C212.55 44.13 212.63 45.28 212.71 46.47 C212.82 48.36 212.82 48.36 212.93 50.29 C212.97 50.95 213.01 51.61 213.05 52.3 C214.14 70.23 214.66 88.19 215.12 106.15 C215.24 110.96 215.39 115.76 215.54 120.57 C215.66 124.31 215.75 128.05 215.84 131.79 C215.89 133.56 215.94 135.34 216.01 137.11 C216.09 139.57 216.14 142.02 216.19 144.47 C216.22 145.19 216.25 145.92 216.28 146.66 C216.33 150.1 216.14 151.82 214.01 154.58 C211.68 156.3 210.25 156.83 207.39 157.15 C206.64 157.25 205.89 157.35 205.11 157.46 C201.85 157 200.93 155.71 198.89 153.15 C197.55 150.7 196.32 148.29 195.14 145.77 C184.73 124.28 171.96 103.83 155.31 86.63 C153.05 84.26 150.92 81.79 148.77 79.33 C144.87 75.02 140.75 71.39 136.12 67.9 C133.89 66.15 133.89 66.15 131.92 64.16 C128.02 60.28 123.38 57.3 118.89 54.15 C117.91 53.46 116.94 52.77 115.93 52.06 C109.93 47.94 103.88 44.47 97.29 41.37 C94.89 40.15 94.89 40.15 92.89 38.15 C90.23 37.09 87.58 36.1 84.89 35.15 C81.17 33.81 77.57 32.51 74.08 30.65 C69.52 28.5 64.77 27.37 59.89 26.15 C58.63 25.82 57.38 25.49 56.08 25.15 C50.05 23.66 43.97 22.42 37.89 21.15 C37.21 20.97 36.52 20.8 35.82 20.62 C31.49 19.92 27.2 19.94 22.83 19.91 C21.84 19.9 20.85 19.89 19.83 19.88 C17.73 19.87 15.63 19.86 13.53 19.85 C11.42 19.84 9.32 19.82 7.21 19.79 C-7.08 19.59 -20.24 20.68 -34.11 24.15 C-34.84 24.33 -35.58 24.5 -36.33 24.69 C-47.59 27.46 -59.22 30.99 -69.11 37.15 C-69.96 37.67 -70.81 38.19 -71.69 38.72 C-82.55 45.16 -82.55 45.16 -91.11 54.15 C-91.77 54.15 -92.43 54.15 -93.11 54.15 C-93.37 54.72 -93.63 55.28 -93.9 55.87 C-95.21 58.33 -96.74 60.35 -98.48 62.52 C-104.74 70.46 -108.52 78.1 -111.73 87.65 C-112.16 88.89 -112.58 90.14 -113.02 91.43 C-115.4 99.58 -115.29 107.59 -115.3 116.02 C-115.31 117.25 -115.32 118.48 -115.33 119.74 C-115.34 126.51 -114.96 132.63 -113.11 139.15 C-112.85 140.2 -112.59 141.25 -112.32 142.34 C-109.24 153.12 -104.4 163.55 -97.11 172.15 C-96.57 172.79 -96.03 173.44 -95.47 174.1 C-93.7 176.14 -91.91 178.14 -90.11 180.15 C-89.58 180.75 -89.05 181.36 -88.51 181.98 C-71.37 200.49 -45.5 213.87 -22.3 223.08 C-21.45 223.42 -20.61 223.76 -19.74 224.1 C-17.95 224.81 -16.15 225.52 -14.35 226.22 C-13.47 226.57 -12.58 226.91 -11.67 227.27 C-10.87 227.58 -10.06 227.89 -9.24 228.22 C-7.11 229.15 -7.11 229.15 -4.11 231.15 C-2.81 231.65 -1.5 232.1 -0.17 232.52 C0.61 232.77 1.4 233.03 2.21 233.29 C3.09 233.57 3.98 233.85 4.89 234.15 C7.02 234.83 9.14 235.52 11.27 236.21 C12.26 236.53 13.26 236.85 14.29 237.18 C16.89 238.15 16.89 238.15 19.89 240.15 C21.36 240.65 22.84 241.1 24.33 241.52 C28.33 242.68 32.31 243.9 36.27 245.21 C37.24 245.53 38.22 245.85 39.23 246.18 C41.89 247.15 41.89 247.15 44.01 248.21 C46.41 249.4 48.89 249.92 51.5 250.49 C54.3 251.26 56.96 252.29 59.67 253.33 C63.51 254.74 67.42 255.93 71.33 257.15 C80.59 260.03 89.75 263.01 98.77 266.58 C103.79 268.56 108.81 270.51 113.89 272.33 C125.75 276.59 137.09 281.67 148.33 287.35 C150.59 288.49 152.86 289.62 155.14 290.72 C161.42 293.77 167.19 297.13 172.89 301.15 C175.82 303.12 178.7 305.03 181.77 306.77 C182.82 307.45 182.82 307.45 183.89 308.15 C183.89 308.81 183.89 309.47 183.89 310.15 C184.59 310.36 185.28 310.57 186 310.79 C189.67 312.51 192.31 314.99 195.2 317.77 C195.78 318.31 196.35 318.85 196.94 319.41 C198.08 320.49 199.22 321.58 200.35 322.67 C201.64 323.9 202.93 325.12 204.24 326.33 C209.55 331.4 213.7 337.13 217.89 343.15 C218.83 344.42 219.77 345.69 220.7 346.96 C222.76 349.95 224.3 352.89 225.89 356.15 C226.38 357.08 226.86 358.01 227.36 358.97 C232.05 368.1 235.85 376.93 237.3 387.15 C237.77 389.53 237.77 389.53 240.89 391.15 C243.15 401.25 242.04 412.85 242.02 423.16 C242.02 426.07 242.02 428.99 242.03 431.91 C242.05 460.83 242.05 460.83 239.4 463.84 C238.9 464.27 238.4 464.7 237.89 465.15 C237.02 467.89 237.02 467.89 236.45 471.02 C233.99 482.6 230.42 493.32 225.05 503.85 C224.19 505.55 223.36 507.26 222.55 508.97 C219.64 515.02 216.48 520.45 212.41 525.79 C210.47 528.59 210.47 528.59 208.89 534.15 C194.37 534.15 179.85 534.15 164.89 534.15 C164.56 532.83 164.23 531.51 163.89 530.15 C164.84 528.78 165.85 527.45 166.89 526.15 C178.54 498.4 179.24 467.9 168.45 439.82 C165.49 432.69 161.36 426.41 156.89 420.15 C156.28 419.28 155.67 418.41 155.04 417.52 C151.2 412.33 146.86 408.24 141.89 404.15 C141.36 403.67 140.83 403.19 140.29 402.7 C132.66 395.82 123.86 390.09 114.89 385.15 C113.88 384.46 112.87 383.78 111.83 383.08 C107.01 379.9 101.77 377.6 96.52 375.21 C92.84 373.52 89.18 371.81 85.58 369.96 C82.52 368.41 79.42 367.14 76.19 365.98 C73.43 364.98 70.69 363.9 67.95 362.83 C62.01 360.54 56.02 358.41 50 356.31 C46.06 354.94 42.18 353.49 38.33 351.9 C35.49 350.73 32.75 349.79 29.77 349.08 C26.4 348.27 23.31 347.2 20.08 345.96 C16.48 344.62 12.85 343.41 9.2 342.21 C8.42 341.95 7.64 341.69 6.84 341.42 C2.15 339.86 -2.56 338.38 -7.3 336.96 C-11.74 335.61 -15.87 334.02 -20.11 332.15 C-25.65 330.15 -31.28 328.48 -36.94 326.89 C-39.11 326.15 -39.11 326.15 -42.11 324.15 C-43.45 323.62 -44.8 323.15 -46.17 322.71 C-46.96 322.45 -47.75 322.19 -48.56 321.93 C-50.29 321.4 -52.03 320.88 -53.78 320.39 C-54.65 320.15 -55.52 319.9 -56.42 319.65 C-57.62 319.32 -57.62 319.32 -58.85 318.99 C-61.34 318.06 -63.01 316.76 -65.11 315.15 C-67.03 314.39 -68.96 313.65 -70.91 312.95 C-77.39 310.57 -83.57 307.47 -89.73 304.35 C-91.14 303.63 -92.56 302.93 -93.99 302.25 C-110.63 294.33 -125.38 283.33 -139.11 271.15 C-139.96 270.39 -140.82 269.63 -141.7 268.85 C-152.11 259.04 -161.53 246.36 -167.11 233.15 C-167.45 232.42 -167.79 231.69 -168.14 230.93 C-172.93 220.59 -175.87 210.31 -178.11 199.15 C-178.29 198.49 -178.47 197.83 -178.66 197.15 C-181.73 183.51 -180.32 168.01 -180.11 154.15 C-180.1 153.43 -180.09 152.72 -180.09 151.98 C-179.76 131.01 -172.02 108.67 -161.36 90.77 C-160.92 90.03 -160.48 89.3 -160.03 88.54 C-156.39 82.47 -152.46 76.72 -148.11 71.15 C-147.38 70.2 -146.65 69.25 -145.89 68.28 C-142 63.37 -138.08 58.94 -133.25 54.95 C-130.71 52.81 -128.33 50.54 -125.92 48.27 C-118.06 41.11 -109.43 35.18 -100.03 30.2 C-97.86 29.05 -97.86 29.05 -94.98 27.02 C-91.8 24.94 -88.63 23.58 -85.11 22.15 C-83.65 21.48 -82.19 20.81 -80.73 20.15 C-76.94 18.45 -73.11 17.12 -69.16 15.86 C-66.9 15.13 -66.9 15.13 -64.11 13.58 C-60.86 12.03 -57.88 11.33 -54.35 10.67 C-52.05 10.19 -52.05 10.19 -49.74 9.18 C-41.37 5.88 -31.95 4.91 -23.1 3.61 C-0.06 -0 -0.06 -0 0 0 Z " fill="#FEFEFE" transform="translate(365.108154296875,175.854736328125)"/>
<path d="M0 0 C76.56 0 153.12 0 232 0 C232 0.66 232 1.32 232 2 C232.85 2.09 232.85 2.09 233.72 2.18 C234.49 2.27 235.27 2.35 236.06 2.44 C236.82 2.52 237.57 2.6 238.35 2.68 C240.31 2.92 242.26 3.2 244.21 3.51 C248.67 4.09 253.08 4.27 257.56 4.44 C264.53 4.75 271.34 5.3 278.23 6.4 C281.2 6.87 284.16 7.3 287.14 7.69 C303.7 9.9 303.7 9.9 311.58 12.31 C315.17 13.33 318.81 13.9 322.49 14.47 C325.16 15.03 327.47 15.98 330 17 C331.58 17.35 333.16 17.66 334.75 17.94 C341.51 19.23 347.71 21.45 354.06 24.06 C357.11 25.31 360.04 26.33 363.25 27.06 C366.9 27.98 369.69 29.24 373 31 C375.33 32.01 377.66 33.01 380 34 C393.8 39.84 407.61 46.56 420 55 C421.22 55.76 422.45 56.52 423.68 57.28 C436.73 65.42 448.61 74.7 460 85 C461.25 86.12 462.5 87.23 463.75 88.35 C464.94 89.42 466.13 90.49 467.31 91.56 C467.86 92.05 468.4 92.54 468.97 93.04 C471.68 95.54 473.41 97.71 475 101 C475.99 101.33 476.98 101.66 478 102 C479.91 104.08 479.91 104.08 482.06 106.81 C483.25 108.31 483.25 108.31 484.46 109.83 C484.88 110.35 485.29 110.87 485.72 111.41 C487.81 114 489.97 116.53 492.12 119.06 C496.4 124.19 500.32 129.44 504 135 C504.53 135.79 505.05 136.58 505.6 137.4 C513.2 149.09 520.24 161.23 526.5 173.69 C526.81 174.31 527.13 174.93 527.45 175.57 C529.61 179.95 531.33 184.42 533 189 C533.81 191.08 534.62 193.17 535.44 195.25 C539.28 205.25 542.43 215.28 545.07 225.65 C545.9 228.89 545.9 228.89 547.02 231.47 C548.29 234.76 548.89 238.1 549.5 241.56 C549.63 242.27 549.76 242.97 549.89 243.7 C551.17 250.84 552.37 257.99 553.5 265.15 C553.75 266.65 553.75 266.65 554 268.19 C554.14 269.09 554.29 269.99 554.44 270.92 C554.62 271.61 554.81 272.29 555 273 C555.66 273.33 556.32 273.66 557 274 C557.17 278.63 557.33 283.25 557.48 287.88 C557.54 289.45 557.59 291.03 557.65 292.6 C557.73 294.86 557.81 297.13 557.88 299.39 C557.91 300.09 557.93 300.79 557.96 301.52 C558.06 304.89 557.91 307.76 557 311 C545.95 311.07 534.9 311.12 523.86 311.16 C518.73 311.17 513.6 311.19 508.47 311.23 C503.52 311.26 498.57 311.28 493.63 311.28 C491.73 311.29 489.84 311.3 487.95 311.32 C485.31 311.34 482.67 311.34 480.03 311.34 C478.85 311.36 478.85 311.36 477.64 311.37 C475.47 311.36 475.47 311.36 472 311 C469.61 307.42 469.15 304.16 468.5 300 C468.37 299.21 468.24 298.42 468.11 297.6 C467.19 291.77 466.55 285.94 466 280.06 C465.43 274 464.53 268.39 462.72 262.56 C461.63 258.67 461.09 254.72 460.53 250.73 C459.99 247.95 459.06 245.62 458 243 C457.64 241.24 457.33 239.47 457.06 237.69 C456.35 233.49 455.32 229.76 453.72 225.82 C452.59 222.95 451.83 219.97 451 217 C449.37 211.66 447.43 206.59 445.1 201.52 C443.79 198.53 442.65 195.49 441.5 192.44 C439.88 188.19 438.19 184.09 436.08 180.06 C435.27 178.51 434.49 176.95 433.73 175.38 C429.65 166.93 424.93 158.97 420 151 C419.08 149.51 419.08 149.51 418.15 147.99 C409.68 134.44 399.83 122.08 389.07 110.29 C387.23 108.25 385.45 106.17 383.69 104.06 C381.66 101.65 379.55 99.86 377 98 C377 97.34 377 96.68 377 96 C376.44 95.76 375.88 95.53 375.31 95.28 C372.46 93.7 370.42 91.74 368.06 89.5 C362.01 83.9 355.62 78.91 349 74 C348.16 73.37 347.31 72.74 346.45 72.1 C339.62 67.16 332.35 63.08 325 59 C324.16 58.52 323.32 58.05 322.46 57.56 C303.46 46.83 283.32 38.83 262.33 32.96 C260.19 32.34 258.06 31.67 255.95 30.94 C252.97 29.99 250.15 29.45 247.06 29 C243.89 28.53 240.97 27.99 237.91 27.04 C232.55 25.45 226.97 25.05 221.44 24.44 C219.23 24.19 217.02 23.94 214.81 23.68 C213.84 23.58 212.87 23.47 211.86 23.36 C210.02 23.13 208.19 22.84 206.37 22.49 C202.31 21.9 198.36 21.82 194.27 21.78 C193.42 21.77 192.56 21.76 191.68 21.74 C188.86 21.71 186.05 21.68 183.23 21.65 C181.27 21.63 179.32 21.6 177.36 21.58 C173.26 21.53 169.16 21.48 165.06 21.44 C159.8 21.39 154.54 21.32 149.27 21.26 C145.23 21.21 141.19 21.16 137.15 21.12 C135.21 21.1 133.27 21.07 131.33 21.05 C128.62 21.02 125.92 20.99 123.21 20.96 C122.4 20.95 121.6 20.94 120.77 20.93 C116.75 20.8 116.75 20.8 113 22 C113 22.6 113 23.21 113 23.83 C113.07 59.6 113.12 95.38 113.15 131.15 C113.16 135.44 113.16 139.74 113.16 144.03 C113.17 144.88 113.17 145.74 113.17 146.62 C113.18 160.47 113.2 174.32 113.23 188.16 C113.26 202.37 113.28 216.57 113.28 230.77 C113.29 239.54 113.3 248.31 113.32 257.08 C113.34 263.09 113.34 269.1 113.34 275.1 C113.34 278.57 113.34 282.04 113.36 285.51 C113.37 289.27 113.37 293.03 113.36 296.78 C113.37 297.89 113.38 298.99 113.39 300.13 C113.38 301.13 113.38 302.13 113.37 303.16 C113.37 304.03 113.37 304.9 113.37 305.79 C112.91 308.5 112.2 309.39 110 311 C106.92 311.37 106.92 311.37 103.08 311.37 C102.38 311.38 101.68 311.38 100.96 311.38 C98.65 311.39 96.34 311.38 94.03 311.36 C92.42 311.36 90.82 311.36 89.21 311.36 C85.85 311.36 82.49 311.35 79.12 311.34 C74.81 311.31 70.49 311.31 66.17 311.32 C62.86 311.32 59.54 311.32 56.23 311.31 C54.64 311.3 53.05 311.3 51.45 311.3 C49.23 311.3 47.01 311.29 44.79 311.27 C43.52 311.27 42.26 311.27 40.95 311.26 C38 311 38 311 36 309 C35.8 306.53 35.72 304.18 35.73 301.71 C35.72 300.95 35.72 300.19 35.71 299.4 C35.7 296.84 35.7 294.27 35.7 291.71 C35.69 289.87 35.68 288.04 35.67 286.2 C35.65 282.23 35.64 278.27 35.63 274.3 C35.62 267.98 35.6 261.67 35.57 255.35 C35.53 245.3 35.5 235.26 35.47 225.22 C35.42 207.38 35.35 189.54 35.28 171.7 C35.26 165.47 35.24 159.24 35.22 153 C35.17 134.06 35.06 115.12 34.65 96.18 C34.62 94.44 34.58 92.7 34.55 90.97 C34 57.72 34 57.72 19.11 28.99 C13.32 23.72 7.51 20.95 0 19 C-0.2 17.33 -0.38 15.67 -0.56 14 C-0.67 13.07 -0.77 12.14 -0.88 11.19 C-1 8 -1 8 0 0 Z " fill="#FEFEFE" transform="translate(674,399)"/>
<path d="M0 0 C0.7 -0.01 1.4 -0.01 2.11 -0.02 C4.42 -0.03 6.73 -0.01 9.04 0.01 C10.64 0.01 12.24 0 13.84 0 C17.2 -0 20.56 0.01 23.92 0.04 C28.23 0.06 32.54 0.06 36.84 0.05 C40.15 0.04 43.46 0.05 46.77 0.06 C48.36 0.07 49.95 0.07 51.54 0.06 C53.76 0.06 55.98 0.08 58.2 0.1 C59.46 0.1 60.72 0.11 62.02 0.11 C65.1 0.5 65.1 0.5 67.01 1.67 C68.54 4.25 68.46 6.18 68.45 9.17 C68.45 10.34 68.46 11.5 68.46 12.71 C68.45 13.97 68.44 15.24 68.43 16.54 C68.44 18.54 68.45 20.54 68.46 22.55 C68.49 27.47 68.48 32.4 68.46 37.32 C68.08 64.83 68.08 64.83 79.1 89.5 C79.54 90.53 79.54 90.53 79.99 91.58 C81.38 94 82.59 94.32 85.1 95.5 C86.49 96.33 87.89 97.16 89.29 97.98 C107.89 108.28 133.88 105.14 154.45 105.02 C157.31 105 160.16 104.99 163.02 104.99 C184.48 104.93 205.91 104.82 227.29 102.69 C228.12 102.61 228.96 102.52 229.82 102.44 C237.44 101.65 244.79 100.59 252.09 98.16 C254.73 97.3 257.35 96.88 260.1 96.5 C268.44 95.2 275.95 92.62 283.73 89.4 C285.87 88.59 287.92 88 290.16 87.5 C308.99 83.07 327.9 69.7 342.84 57.78 C344.96 56.08 346.94 54.58 349.4 53.4 C351.46 52.56 351.46 52.56 352.1 49.5 C353.7 47.96 353.7 47.96 355.72 46.31 C362.53 40.53 367.85 33.69 373.1 26.5 C373.72 25.68 374.33 24.86 374.97 24.01 C379.49 17.92 383.5 11.69 387.34 5.15 C389.1 2.5 389.1 2.5 392.1 0.5 C394.43 0.25 394.43 0.25 397.2 0.26 C398.75 0.25 398.75 0.25 400.34 0.25 C401.46 0.26 402.58 0.26 403.73 0.27 C405.45 0.27 405.45 0.27 407.21 0.27 C409.63 0.28 412.06 0.28 414.49 0.3 C418.21 0.31 421.94 0.32 425.67 0.32 C428.02 0.32 430.38 0.33 432.73 0.33 C433.85 0.33 434.98 0.34 436.13 0.34 C437.16 0.34 438.2 0.35 439.26 0.36 C440.63 0.36 440.63 0.36 442.02 0.37 C444.1 0.5 444.1 0.5 445.1 1.5 C445.47 3.75 445.47 3.75 445.1 6.5 C443.48 8.21 441.8 9.87 440.1 11.5 C438.46 13.26 436.84 15.03 435.22 16.81 C434.34 17.78 433.47 18.75 432.56 19.75 C430.61 21.93 428.69 24.14 426.79 26.38 C418.38 36 409.15 44.63 399.1 52.5 C397.35 53.92 395.6 55.33 393.85 56.75 C382.86 65.5 382.86 65.5 380.1 65.5 C380.1 66.16 380.1 66.82 380.1 67.5 C378.06 68.91 376.04 70.19 373.91 71.44 C373.33 71.79 372.75 72.13 372.16 72.49 C369.63 74.01 367.09 75.51 364.55 77.01 C362.73 78.11 360.96 79.28 359.2 80.48 C356.04 82.54 352.86 84.22 349.47 85.88 C348.23 86.49 346.98 87.1 345.73 87.71 C345.12 88.01 344.5 88.31 343.87 88.62 C342.27 89.41 340.69 90.24 339.12 91.08 C331.98 94.83 324.7 97.54 317.08 100.11 C313.32 101.38 309.73 102.92 306.1 104.5 C300.21 106.73 294.19 108.27 288.08 109.75 C285.34 110.44 282.66 111.22 279.97 112.06 C275.07 113.57 270.14 114.56 265.1 115.5 C262.63 116 260.16 116.5 257.7 117.01 C255.83 117.36 253.97 117.68 252.09 117.97 C251.11 118.12 250.12 118.28 249.1 118.44 C248.19 118.57 247.28 118.7 246.35 118.84 C243.74 119.35 243.74 119.35 242.1 122.5 C239.54 122.91 237.22 123.1 234.64 123.18 C233.85 123.21 233.06 123.25 232.24 123.28 C220.63 123.71 209 123.64 197.38 123.63 C194.73 123.63 192.07 123.63 189.42 123.64 C183.02 123.64 176.61 123.64 170.2 123.64 C165 123.63 159.8 123.63 154.59 123.64 C153.48 123.64 153.48 123.64 152.34 123.64 C150.83 123.64 149.31 123.64 147.8 123.64 C133.69 123.64 119.57 123.64 105.46 123.63 C93.34 123.63 81.23 123.63 69.11 123.63 C55.02 123.64 40.92 123.64 26.83 123.64 C25.33 123.64 23.83 123.64 22.33 123.64 C21.59 123.64 20.85 123.64 20.09 123.64 C14.88 123.63 9.68 123.64 4.47 123.64 C-2.52 123.64 -9.51 123.64 -16.5 123.63 C-19.07 123.63 -21.64 123.63 -24.21 123.63 C-27.7 123.64 -31.2 123.63 -34.69 123.63 C-35.72 123.63 -36.75 123.63 -37.82 123.64 C-39.21 123.63 -39.21 123.63 -40.63 123.63 C-41.44 123.63 -42.24 123.63 -43.07 123.63 C-44.9 123.5 -44.9 123.5 -45.9 122.5 C-46 120.57 -46.03 118.63 -46.03 116.69 C-46.03 115.63 -46.03 114.57 -46.04 113.48 C-45.92 110.96 -45.63 108.9 -44.9 106.5 C-43.08 106.1 -43.08 106.1 -41.21 105.69 C-33.63 103.75 -26.94 98.82 -22.42 92.4 C-21.12 90.14 -19.99 87.86 -18.9 85.5 C-18.54 84.8 -18.19 84.1 -17.82 83.37 C-14.22 75.61 -13.37 67.17 -12.23 58.77 C-11.99 57.13 -11.7 55.5 -11.38 53.88 C-10.73 49.25 -10.73 44.67 -10.69 39.99 C-10.66 37.94 -10.63 35.88 -10.61 33.82 C-10.56 30.59 -10.53 27.36 -10.5 24.13 C-10.47 21 -10.43 17.87 -10.38 14.74 C-10.38 13.78 -10.37 12.81 -10.37 11.81 C-10.35 10.91 -10.34 10.01 -10.32 9.08 C-10.31 8.29 -10.3 7.5 -10.29 6.69 C-9.17 0.42 -5.84 0 0 0 Z " fill="#FEFEFE" transform="translate(718.90234375,918.498291015625)"/>
<path d="M0 0 C2.38 1.44 2.38 1.44 4 4 C5 11.9 2.64 18.61 0 26 C-0.32 26.91 -0.63 27.82 -0.96 28.76 C-5.95 41.86 -13.65 54.53 -21.8 65.91 C-23.57 68.99 -24.22 71.74 -23.62 75.25 C-21.47 81.58 -19.03 85.86 -13.44 89.81 C-0.98 95.88 14.92 91.1 27.22 86.9 C37.31 82.99 47.46 78.13 53.57 68.95 C59.2 61.25 67.8 57.53 77 56 C81.42 56.11 84.67 56.87 88.06 59.75 C89.35 62.84 89.53 64.68 89 68 C85 74.77 78.34 77.24 71.08 79.63 C68.12 80.15 65.25 80.09 62.25 80.06 C61.08 80.05 59.91 80.04 58.7 80.04 C57.37 80.02 57.37 80.02 56 80 C57.62 84.46 58.62 85.95 63 88 C78.49 93.94 95.16 93.35 111 89 C112.19 88.69 113.39 88.37 114.62 88.05 C131.38 83.49 149.26 76.53 161.81 64.16 C164.86 61.15 168.18 58.56 171.55 55.93 C173.2 54.63 174.82 53.3 176.42 51.95 C182.23 47.09 182.23 47.09 186.56 46.56 C187.37 46.71 188.17 46.85 189 47 C189.33 48.32 189.66 49.64 190 51 C189.43 51.42 188.87 51.85 188.29 52.29 C183.17 56.17 183.17 56.17 181 61.94 C181 62.95 181 63.96 181 65 C181.57 65.27 182.13 65.54 182.71 65.82 C185.1 67.05 187.32 68.41 189.56 69.88 C190.71 70.61 190.71 70.61 191.88 71.37 C194.84 73.65 196.78 75.5 197.33 79.29 C197.3 80.06 197.28 80.83 197.25 81.62 C197.23 82.4 197.22 83.18 197.2 83.98 C197 86 197 86 196 88 C211.57 84.55 227.25 78.81 239.84 68.72 C242 67 242 67 244 67 C244 66.34 244 65.68 244 65 C246.31 64.31 246.31 64.31 249 64 C250.81 65.44 250.81 65.44 252 67 C250.12 72.75 250.12 72.75 249 75 C248.85 76.64 248.78 78.29 248.75 79.94 C248.72 80.81 248.7 81.69 248.67 82.59 C248.81 85.02 248.81 85.02 250.25 86.68 C257.91 92.45 266.74 92.97 276 92 C290.79 89.13 304.12 81.14 316.01 72.2 C318.61 70.28 321.22 68.63 324 67 C325.28 66.15 325.28 66.15 326.58 65.28 C334.91 59.73 341.87 56.28 352 57 C353 58 353 58 353.06 60.56 C353.04 61.37 353.02 62.17 353 63 C351.02 63.99 351.02 63.99 349 65 C349.71 66.02 349.71 66.02 350.44 67.06 C352.22 70.42 352.63 73.24 353 77 C355.05 76.1 356.84 75.13 358.58 73.72 C361.59 71.28 363.23 70.03 367.19 69.88 C370.57 70.87 373.49 72.11 376.69 73.56 C384.75 77.02 392.05 77.36 400.31 74.31 C403.43 72.92 406.09 71.31 408.81 69.25 C412 67 412 67 414.88 66.62 C417 67 417 67 418 68 C418.18 72.49 417.79 76.59 417 81 C417.79 80.45 418.57 79.89 419.38 79.32 C427.51 73.72 434.79 69.56 445 71 C450.25 73.41 452.91 77.37 456.27 81.88 C459.44 85.77 463.02 88.09 468 89 C488.51 90.19 501.95 83.64 518 71 C519.28 69.99 519.28 69.99 520.59 68.96 C524.95 65.5 529.26 61.97 533.56 58.44 C534.48 57.7 535.39 56.95 536.33 56.19 C538.06 54.77 539.78 53.33 541.48 51.88 C547.23 47.09 547.23 47.09 551.56 46.56 C552.37 46.71 553.17 46.85 554 47 C554.33 48.32 554.66 49.64 555 51 C554.43 51.42 553.87 51.85 553.29 52.29 C548.17 56.17 548.17 56.17 546 61.94 C546 62.95 546 63.96 546 65 C546.85 65.41 546.85 65.41 547.71 65.82 C550.1 67.05 552.32 68.41 554.56 69.88 C555.71 70.61 555.71 70.61 556.88 71.37 C559.84 73.65 561.78 75.5 562.33 79.29 C562.29 80.45 562.29 80.45 562.25 81.62 C562.23 82.4 562.22 83.18 562.2 83.98 C562 86 562 86 561 88 C576.51 84.56 592.29 78.86 604.79 68.74 C607.41 66.67 608.75 66.63 612 67 C612.33 68.65 612.66 70.3 613 72 C596.45 88.02 571.47 97.1 548.62 97.25 C547.83 97.27 547.03 97.29 546.2 97.31 C536.35 97.38 529.22 94.15 521.56 88.06 C520 86 520 86 520.25 83.25 C520.5 82.51 520.75 81.76 521 81 C523 80.12 523 80.12 526 80 C528.21 81.36 530.14 82.89 532.13 84.55 C536.45 87.9 541.79 87.48 547 87 C550.5 85.67 550.5 85.67 553 84 C553.45 81.67 553.45 81.67 553 79 C550.69 76.75 550.69 76.75 547.69 74.88 C542.11 71.13 542.11 71.13 540.46 69.2 C539.02 67.76 539.02 67.76 536.71 67.98 C533.03 69.36 530.44 71.71 527.56 74.31 C513.38 86.93 495.35 97.63 475.94 98.25 C464.48 97.52 456.08 94.28 448 86 C447.34 84.91 446.68 83.81 446 82.69 C444.19 79.75 444.19 79.75 440.88 78.81 C431.04 79.29 424.03 86.16 416.98 92.38 C414.38 94.67 411.73 96.86 409 99 C407.35 98.34 405.7 97.68 404 97 C404.55 90.95 405.9 85.69 408 80 C407.2 80.29 406.4 80.58 405.58 80.88 C391.63 85.59 381.5 84.39 367.86 79.18 C365.89 78.8 365.89 78.8 364.11 80.19 C363.16 81.08 363.16 81.08 362.19 82 C361.25 82.87 361.25 82.87 360.29 83.75 C359.54 84.49 358.78 85.24 358 86 C357.15 86.7 357.15 86.7 356.29 87.42 C350.77 92.29 349.37 97 347.88 104.06 C347.39 106.13 346.89 108.19 346.39 110.25 C346.16 111.24 345.92 112.23 345.68 113.25 C342.46 126.21 336.71 143.34 326 152 C322.37 153.38 320.92 153.34 317.31 152 C314.24 149.34 312.7 146.96 312 143 C312.14 123.47 327.94 106.28 340.2 92.49 C342.39 89.97 342.39 89.97 342 86 C341.3 86.91 340.6 87.82 339.88 88.75 C336.54 92.73 333.06 95.34 328.06 96.94 C323.94 97.02 321.55 96.08 318 94 C315.92 90.74 314.88 87.72 314 84 C313.33 84.45 312.67 84.89 311.98 85.36 C295.62 96.08 278.69 102.23 259 100 C255.31 99.12 252.26 97.91 249 96 C247.87 95.36 246.73 94.72 245.56 94.06 C240.76 90.2 239.49 85.86 238 80 C237.45 80.36 236.9 80.73 236.34 81.1 C220.69 91.02 202.15 97.13 183.62 97.25 C182.83 97.27 182.03 97.29 181.2 97.31 C171.35 97.38 164.22 94.15 156.56 88.06 C155 86 155 86 155.25 83.25 C155.5 82.51 155.75 81.76 156 81 C158 80.12 158 80.12 161 80 C163.21 81.36 165.14 82.89 167.13 84.55 C171.45 87.9 176.79 87.48 182 87 C185.5 85.67 185.5 85.67 188 84 C188.45 81.67 188.45 81.67 188 79 C185.69 76.75 185.69 76.75 182.69 74.88 C177.11 71.13 177.11 71.13 175.46 69.2 C174.01 67.74 174.01 67.74 171.63 68.05 C168.4 69.22 166.5 70.84 163.94 73.12 C149.56 85.24 131.93 92.01 114 97 C112.93 97.32 111.86 97.64 110.76 97.97 C93.6 102.48 73.39 102.04 57 95 C53.19 92.56 50.04 90.08 48 86 C47.25 86.39 46.5 86.77 45.73 87.17 C28.73 95.82 10.44 102.99 -9 100 C-17.84 97.1 -25.32 92.15 -30 84 C-30 83.01 -30 82.02 -30 81 C-35.01 83.65 -38.54 87.44 -42.36 91.53 C-46.8 96.14 -51.21 99.25 -57.5 100.94 C-62.51 101.03 -66.19 99.69 -69.88 96.25 C-72.63 90.74 -72.18 85.32 -70.85 79.49 C-68.41 72.35 -63.24 67.89 -57 64 C-52.64 62.55 -48.37 62.1 -44.03 63.75 C-40.56 65.63 -38.05 67.62 -36 71 C-34.63 68.25 -34.84 65.65 -34.76 62.63 C-34.21 43 -30.39 21.51 -15.98 6.96 C-10.99 2.46 -7.04 -0.88 0 0 Z M-8.87 10.62 C-20 23.13 -24.15 37.57 -26 54 C-20.88 49.58 -18.09 44.24 -14.94 38.31 C-14.42 37.37 -13.9 36.43 -13.37 35.46 C-8.75 26.89 -4.73 18.79 -4 9 C-7.03 8.67 -7.03 8.67 -8.87 10.62 Z M61 72 C61 72.66 61 73.32 61 74 C68.12 73.12 74.52 71.94 80 67 C80.33 66.01 80.66 65.02 81 64 C72.32 63.55 67.31 66.14 61 72 Z M330.19 72.38 C326.26 76.59 324.1 80 323.81 85.88 C323.87 86.91 323.94 87.94 324 89 C327.58 89.31 327.58 89.31 330.74 87.81 C336.64 81.02 340.22 73.09 344 65 C338.72 65 333.84 68.87 330.19 72.38 Z M-58 74 C-61.1 77.01 -62.82 79.51 -63.34 83.86 C-63.37 86.62 -63.33 89.27 -63 92 C-62.67 92.33 -62.34 92.66 -62 93 C-54.48 92.85 -50.07 89.13 -44.94 83.89 C-41.36 80.44 -41.36 80.44 -40 76 C-40.62 75.73 -41.24 75.46 -41.88 75.19 C-44 74 -44 74 -46 71 C-51.35 69.17 -53.8 70.42 -58 74 Z M339 105 C334.01 110.21 330.54 116.36 327.19 122.69 C326.8 123.41 326.42 124.14 326.02 124.88 C323.28 130.18 320.66 135.27 320.88 141.38 C320.92 142.57 320.96 143.77 321 145 C325.35 143.55 326.33 140.25 328.31 136.38 C328.71 135.61 329.1 134.85 329.51 134.07 C334.23 124.81 338.83 115.43 340 105 C339.67 105 339.34 105 339 105 Z " fill="#FEFEFE" transform="translate(412,738)"/>
<path d="M0 0 C0.8 0.01 1.6 0.02 2.42 0.03 C3.03 0.04 3.63 0.05 4.25 0.06 C7.52 6.51 10.75 12.98 13.84 19.53 C14.28 20.46 14.72 21.4 15.17 22.36 C16.05 24.22 16.92 26.09 17.78 27.95 C18.19 28.82 18.6 29.68 19.02 30.57 C19.37 31.34 19.73 32.11 20.1 32.9 C21.3 35.15 22.7 37.05 24.25 39.06 C25.15 40.67 26.02 42.3 26.88 43.94 C32.53 54.45 39.24 64.41 46.25 74.06 C46.68 74.66 47.11 75.25 47.56 75.87 C54.02 84.75 60.73 93.05 68.25 101.06 C69.49 102.47 70.72 103.89 71.94 105.31 C77.86 112.28 77.86 112.28 85.12 117.69 C87.25 119.06 87.25 119.06 88.12 121.69 C88.17 122.47 88.21 123.25 88.25 124.06 C86.44 125.87 83.95 125.18 81.54 125.19 C80.72 125.18 79.9 125.18 79.06 125.18 C78.2 125.18 77.34 125.18 76.46 125.18 C73.61 125.18 70.75 125.17 67.9 125.16 C65.93 125.16 63.96 125.16 61.99 125.16 C56.79 125.15 51.59 125.14 46.39 125.13 C41.09 125.12 35.78 125.12 30.48 125.11 C20.07 125.1 9.66 125.08 -0.75 125.06 C-1.31 119.33 -1.87 113.61 -2.42 107.88 C-2.61 105.93 -2.8 103.99 -2.99 102.05 C-4.07 91.12 -5.06 80.23 -5.38 69.25 C-5.4 68.28 -5.43 67.31 -5.46 66.3 C-5.49 65.47 -5.51 64.64 -5.54 63.79 C-5.4 53.72 -5.4 53.72 -8.75 45.06 C-9.96 35.72 -9.9 26.27 -9.88 16.88 C-9.88 15.57 -9.88 14.26 -9.89 12.91 C-9.89 11.67 -9.88 10.43 -9.88 9.14 C-9.88 8.02 -9.88 6.9 -9.88 5.75 C-9.75 3.06 -9.75 3.06 -8.75 1.06 C-5.82 0.03 -3.09 -0.05 0 0 Z " fill="#FEFEFE" transform="translate(181.75,584.9375)"/>
<path d="M0 0 C0.72 0.4 1.43 0.8 2.17 1.21 C2.17 5.21 2.17 5.21 0.63 6.91 C-5.05 11.13 -5.05 11.13 -9.33 11.59 C-10.16 11.46 -10.98 11.34 -11.83 11.21 C-12.16 9.56 -12.49 7.91 -12.83 6.21 C-11.29 4.98 -9.72 3.78 -8.14 2.59 C-7.27 1.91 -6.4 1.24 -5.51 0.55 C-2.83 -0.79 -2.83 -0.79 0 0 Z " fill="#FEFEFE" transform="translate(663.83203125,786.7890625)"/>
</svg>
